<?xml version="1.0" encoding="UTF-8" standalone="no"?>
<!DOCTYPE svg PUBLIC "-//W3C//DTD SVG 1.1//EN"
 "http://www.w3.org/Graphics/SVG/1.1/DTD/svg11.dtd">
<!-- Generated by graphviz version 7.1.0 (20230122.1345)
 -->
<!-- Title: snakemake_dag Pages: 1 -->
<svg width="1166pt" height="908pt"
 viewBox="0.00 0.00 1166.00 908.00" xmlns="http://www.w3.org/2000/svg" xmlns:xlink="http://www.w3.org/1999/xlink">
<g id="graph0" class="graph" transform="scale(1 1) rotate(0) translate(4 904)">
<title>snakemake_dag</title>
<polygon fill="white" stroke="none" points="-4,4 -4,-904 1162,-904 1162,4 -4,4"/>
<!-- 0 -->
<g id="node1" class="node">
<title>0</title>
<path fill="none" stroke="#56d8d0" stroke-width="2" d="M302,-36C302,-36 272,-36 272,-36 266,-36 260,-30 260,-24 260,-24 260,-12 260,-12 260,-6 266,0 272,0 272,0 302,0 302,0 308,0 314,-6 314,-12 314,-12 314,-24 314,-24 314,-30 308,-36 302,-36"/>
<text text-anchor="middle" x="287" y="-15.5" font-family="sans" font-size="10.00">all</text>
</g>
<!-- 1 -->
<g id="node2" class="node">
<title>1</title>
<path fill="none" stroke="#d88d56" stroke-width="2" d="M309.5,-756C309.5,-756 244.5,-756 244.5,-756 238.5,-756 232.5,-750 232.5,-744 232.5,-744 232.5,-732 232.5,-732 232.5,-726 238.5,-720 244.5,-720 244.5,-720 309.5,-720 309.5,-720 315.5,-720 321.5,-726 321.5,-732 321.5,-732 321.5,-744 321.5,-744 321.5,-750 315.5,-756 309.5,-756"/>
<text text-anchor="middle" x="277" y="-735.5" font-family="sans" font-size="10.00">variant_counts</text>
</g>
<!-- 1&#45;&gt;0 -->
<g id="edge4" class="edge">
<title>1&#45;&gt;0</title>
<path fill="none" stroke="grey" stroke-width="2" d="M231.56,-736.11C183.5,-733.04 107.51,-721.95 55,-684 17.31,-656.76 0,-641.5 0,-595 0,-595 0,-595 0,-161 0,-52.35 167.28,-26.83 246.42,-20.84"/>
<polygon fill="grey" stroke="grey" stroke-width="2" points="246.46,-24.34 256.2,-20.18 245.99,-17.36 246.46,-24.34"/>
</g>
<!-- 5 -->
<g id="node6" class="node">
<title>5</title>
<path fill="none" stroke="#5673d8" stroke-width="2" d="M425,-684C425,-684 317,-684 317,-684 311,-684 305,-678 305,-672 305,-672 305,-660 305,-660 305,-654 311,-648 317,-648 317,-648 425,-648 425,-648 431,-648 437,-654 437,-660 437,-660 437,-672 437,-672 437,-678 431,-684 425,-684"/>
<text text-anchor="middle" x="371" y="-663.5" font-family="sans" font-size="10.00">analyze_variant_counts</text>
</g>
<!-- 1&#45;&gt;5 -->
<g id="edge12" class="edge">
<title>1&#45;&gt;5</title>
<path fill="none" stroke="grey" stroke-width="2" d="M300.72,-719.34C311.66,-711.19 324.84,-701.37 336.83,-692.45"/>
<polygon fill="grey" stroke="grey" stroke-width="2" points="338.6,-695.49 344.53,-686.71 334.42,-689.88 338.6,-695.49"/>
</g>
<!-- 11 -->
<g id="node12" class="node">
<title>11</title>
<path fill="none" stroke="#568ad8" stroke-width="2" d="M492,-540C492,-540 438,-540 438,-540 432,-540 426,-534 426,-528 426,-528 426,-516 426,-516 426,-510 432,-504 438,-504 438,-504 492,-504 492,-504 498,-504 504,-510 504,-516 504,-516 504,-528 504,-528 504,-534 498,-540 492,-540"/>
<text text-anchor="middle" x="465" y="-519.5" font-family="sans" font-size="10.00">prob_escape</text>
</g>
<!-- 1&#45;&gt;11 -->
<g id="edge22" class="edge">
<title>1&#45;&gt;11</title>
<path fill="none" stroke="grey" stroke-width="2" d="M277.16,-719.22C278.12,-700.18 281.97,-669.78 296,-648 325.22,-602.62 377.09,-567.95 415.68,-546.77"/>
<polygon fill="grey" stroke="grey" stroke-width="2" points="416.84,-550.11 424.02,-542.32 413.55,-543.94 416.84,-550.11"/>
</g>
<!-- 12 -->
<g id="node13" class="node">
<title>12</title>
<path fill="none" stroke="#61d856" stroke-width="2" d="M514,-108C514,-108 460,-108 460,-108 454,-108 448,-102 448,-96 448,-96 448,-84 448,-84 448,-78 454,-72 460,-72 460,-72 514,-72 514,-72 520,-72 526,-78 526,-84 526,-84 526,-96 526,-96 526,-102 520,-108 514,-108"/>
<text text-anchor="middle" x="487" y="-87.5" font-family="sans" font-size="10.00">sphinx_build</text>
</g>
<!-- 1&#45;&gt;12 -->
<g id="edge31" class="edge">
<title>1&#45;&gt;12</title>
<path fill="none" stroke="grey" stroke-width="2" d="M231.76,-730.85C162.48,-718.59 38,-684.17 38,-595 38,-595 38,-595 38,-305 38,-216.02 80.24,-189 157,-144 203.06,-117 353.39,-101.43 434.31,-94.81"/>
<polygon fill="grey" stroke="grey" stroke-width="2" points="434.44,-98.31 444.13,-94.03 433.88,-91.33 434.44,-98.31"/>
</g>
<!-- 18 -->
<g id="node19" class="node">
<title>18</title>
<path fill="none" stroke="#97d856" stroke-width="2" d="M559.5,-180C559.5,-180 512.5,-180 512.5,-180 506.5,-180 500.5,-174 500.5,-168 500.5,-168 500.5,-156 500.5,-156 500.5,-150 506.5,-144 512.5,-144 512.5,-144 559.5,-144 559.5,-144 565.5,-144 571.5,-150 571.5,-156 571.5,-156 571.5,-168 571.5,-168 571.5,-174 565.5,-180 559.5,-180"/>
<text text-anchor="middle" x="536" y="-159.5" font-family="sans" font-size="10.00">docs_index</text>
</g>
<!-- 1&#45;&gt;18 -->
<g id="edge50" class="edge">
<title>1&#45;&gt;18</title>
<path fill="none" stroke="grey" stroke-width="2" d="M239.82,-719C191.66,-692.83 115.76,-640.29 133,-576 180.85,-397.52 194.58,-328.73 341,-216 383.36,-183.39 444.37,-170.82 486.83,-165.99"/>
<polygon fill="grey" stroke="grey" stroke-width="2" points="487.03,-169.49 496.63,-165.01 486.33,-162.52 487.03,-169.49"/>
</g>
<!-- 2 -->
<g id="node3" class="node">
<title>2</title>
<path fill="none" stroke="#56d89a" stroke-width="2" d="M386.5,-828C386.5,-828 317.5,-828 317.5,-828 311.5,-828 305.5,-822 305.5,-816 305.5,-816 305.5,-804 305.5,-804 305.5,-798 311.5,-792 317.5,-792 317.5,-792 386.5,-792 386.5,-792 392.5,-792 398.5,-798 398.5,-804 398.5,-804 398.5,-816 398.5,-816 398.5,-822 392.5,-828 386.5,-828"/>
<text text-anchor="middle" x="352" y="-807.5" font-family="sans" font-size="10.00">count_barcodes</text>
</g>
<!-- 2&#45;&gt;1 -->
<g id="edge5" class="edge">
<title>2&#45;&gt;1</title>
<path fill="none" stroke="grey" stroke-width="2" d="M333.07,-791.34C324.7,-783.52 314.67,-774.16 305.43,-765.53"/>
<polygon fill="grey" stroke="grey" stroke-width="2" points="308.09,-763.23 298.39,-758.97 303.32,-768.35 308.09,-763.23"/>
</g>
<!-- 2&#45;&gt;5 -->
<g id="edge9" class="edge">
<title>2&#45;&gt;5</title>
<path fill="none" stroke="grey" stroke-width="2" d="M354.41,-791.02C357.55,-767.54 363.09,-726.11 366.9,-697.64"/>
<polygon fill="grey" stroke="grey" stroke-width="2" points="370.35,-698.21 368.21,-687.84 363.42,-697.29 370.35,-698.21"/>
</g>
<!-- 3 -->
<g id="node4" class="node">
<title>3</title>
<path fill="none" stroke="#56d863" stroke-width="2" d="M513,-900C513,-900 417,-900 417,-900 411,-900 405,-894 405,-888 405,-888 405,-876 405,-876 405,-870 411,-864 417,-864 417,-864 513,-864 513,-864 519,-864 525,-870 525,-876 525,-876 525,-888 525,-888 525,-894 519,-900 513,-900"/>
<text text-anchor="middle" x="465" y="-879.5" font-family="sans" font-size="10.00">get_prebuilt_variants</text>
</g>
<!-- 3&#45;&gt;1 -->
<g id="edge6" class="edge">
<title>3&#45;&gt;1</title>
<path fill="none" stroke="grey" stroke-width="2" d="M404.11,-876.93C367.74,-871.26 323.43,-858.13 296,-828 281.71,-812.3 277.18,-788.56 276.11,-769.55"/>
<polygon fill="grey" stroke="grey" stroke-width="2" points="279.61,-769.67 275.91,-759.74 272.62,-769.81 279.61,-769.67"/>
</g>
<!-- 3&#45;&gt;2 -->
<g id="edge7" class="edge">
<title>3&#45;&gt;2</title>
<path fill="none" stroke="grey" stroke-width="2" d="M436.19,-863.15C422.65,-854.76 406.28,-844.62 391.59,-835.52"/>
<polygon fill="grey" stroke="grey" stroke-width="2" points="393.67,-832.7 383.33,-830.41 389.99,-838.65 393.67,-832.7"/>
</g>
<!-- 3&#45;&gt;5 -->
<g id="edge11" class="edge">
<title>3&#45;&gt;5</title>
<path fill="none" stroke="grey" stroke-width="2" d="M457.15,-863.12C441.01,-826.38 403.96,-742.05 384.12,-696.87"/>
<polygon fill="grey" stroke="grey" stroke-width="2" points="387.34,-695.5 380.11,-687.75 380.93,-698.31 387.34,-695.5"/>
</g>
<!-- 7 -->
<g id="node8" class="node">
<title>7</title>
<path fill="none" stroke="#d85656" stroke-width="2" d="M690.5,-828C690.5,-828 607.5,-828 607.5,-828 601.5,-828 595.5,-822 595.5,-816 595.5,-816 595.5,-804 595.5,-804 595.5,-798 601.5,-792 607.5,-792 607.5,-792 690.5,-792 690.5,-792 696.5,-792 702.5,-798 702.5,-804 702.5,-804 702.5,-816 702.5,-816 702.5,-822 696.5,-828 690.5,-828"/>
<text text-anchor="middle" x="649" y="-807.5" font-family="sans" font-size="10.00">translate_geneseq</text>
</g>
<!-- 3&#45;&gt;7 -->
<g id="edge14" class="edge">
<title>3&#45;&gt;7</title>
<path fill="none" stroke="grey" stroke-width="2" d="M511.91,-863.15C535.61,-854.14 564.61,-843.11 589.82,-833.51"/>
<polygon fill="grey" stroke="grey" stroke-width="2" points="590.93,-836.84 599.03,-830.01 588.44,-830.29 590.93,-836.84"/>
</g>
<!-- 3&#45;&gt;11 -->
<g id="edge21" class="edge">
<title>3&#45;&gt;11</title>
<path fill="none" stroke="grey" stroke-width="2" d="M465,-863.07C465,-836.13 465,-783.62 465,-739 465,-739 465,-739 465,-665 465,-626.65 465,-582.48 465,-553.72"/>
<polygon fill="grey" stroke="grey" stroke-width="2" points="468.5,-553.96 465,-543.96 461.5,-553.96 468.5,-553.96"/>
</g>
<!-- 3&#45;&gt;12 -->
<g id="edge36" class="edge">
<title>3&#45;&gt;12</title>
<path fill="none" stroke="grey" stroke-width="2" d="M525.89,-881.38C695,-880.8 1158,-867.49 1158,-739 1158,-739 1158,-739 1158,-233 1158,-177.68 1120.96,-167.74 1071,-144 977.62,-99.63 664.83,-92.3 539.54,-91.17"/>
<polygon fill="grey" stroke="grey" stroke-width="2" points="539.67,-87.67 529.64,-91.09 539.61,-94.67 539.67,-87.67"/>
</g>
<!-- 3&#45;&gt;18 -->
<g id="edge55" class="edge">
<title>3&#45;&gt;18</title>
<path fill="none" stroke="grey" stroke-width="2" d="M471.82,-863.07C495.68,-798.66 574,-572.53 574,-379 574,-379 574,-379 574,-305 574,-265.16 559.87,-221.11 548.85,-192.8"/>
<polygon fill="grey" stroke="grey" stroke-width="2" points="552.19,-191.73 545.19,-183.77 545.7,-194.36 552.19,-191.73"/>
</g>
<!-- 4 -->
<g id="node5" class="node">
<title>4</title>
<path fill="none" stroke="#b6d856" stroke-width="2" d="M303.5,-612C303.5,-612 154.5,-612 154.5,-612 148.5,-612 142.5,-606 142.5,-600 142.5,-600 142.5,-588 142.5,-588 142.5,-582 148.5,-576 154.5,-576 154.5,-576 303.5,-576 303.5,-576 309.5,-576 315.5,-582 315.5,-588 315.5,-588 315.5,-600 315.5,-600 315.5,-606 309.5,-612 303.5,-612"/>
<text text-anchor="middle" x="229" y="-591.5" font-family="sans" font-size="10.00">check_adequate_variant_counts</text>
</g>
<!-- 4&#45;&gt;0 -->
<g id="edge2" class="edge">
<title>4&#45;&gt;0</title>
<path fill="none" stroke="grey" stroke-width="2" d="M214.82,-575.29C166.72,-512.92 17.24,-298.87 100,-144 131.04,-85.92 202.34,-50.11 247.38,-32.44"/>
<polygon fill="grey" stroke="grey" stroke-width="2" points="248.38,-35.81 256.5,-29 245.91,-29.26 248.38,-35.81"/>
</g>
<!-- 4&#45;&gt;11 -->
<g id="edge20" class="edge">
<title>4&#45;&gt;11</title>
<path fill="none" stroke="grey" stroke-width="2" d="M289.47,-575.06C327.59,-563.76 376.3,-549.31 412.74,-538.5"/>
<polygon fill="grey" stroke="grey" stroke-width="2" points="413.58,-541.9 422.18,-535.7 411.59,-535.19 413.58,-541.9"/>
</g>
<!-- 5&#45;&gt;4 -->
<g id="edge8" class="edge">
<title>5&#45;&gt;4</title>
<path fill="none" stroke="grey" stroke-width="2" d="M334.8,-647.15C317.11,-638.43 295.59,-627.82 276.58,-618.46"/>
<polygon fill="grey" stroke="grey" stroke-width="2" points="278.37,-615.43 267.85,-614.15 275.27,-621.71 278.37,-615.43"/>
</g>
<!-- 5&#45;&gt;12 -->
<g id="edge33" class="edge">
<title>5&#45;&gt;12</title>
<path fill="none" stroke="grey" stroke-width="2" d="M304.01,-658.16C242.22,-650.47 156.62,-635.83 133,-612 104.53,-583.27 114,-563.45 114,-523 114,-523 114,-523 114,-233 114,-165.22 331.83,-118.11 434.56,-99.66"/>
<polygon fill="grey" stroke="grey" stroke-width="2" points="434.86,-103.16 444.1,-97.97 433.65,-96.26 434.86,-103.16"/>
</g>
<!-- 15 -->
<g id="node16" class="node">
<title>15</title>
<path fill="none" stroke="#56c1d8" stroke-width="2" d="M428.5,-324C428.5,-324 373.5,-324 373.5,-324 367.5,-324 361.5,-318 361.5,-312 361.5,-312 361.5,-300 361.5,-300 361.5,-294 367.5,-288 373.5,-288 373.5,-288 428.5,-288 428.5,-288 434.5,-288 440.5,-294 440.5,-300 440.5,-300 440.5,-312 440.5,-312 440.5,-318 434.5,-324 428.5,-324"/>
<text text-anchor="middle" x="401" y="-303.5" font-family="sans" font-size="10.00">make_nblink</text>
</g>
<!-- 5&#45;&gt;15 -->
<g id="edge39" class="edge">
<title>5&#45;&gt;15</title>
<path fill="none" stroke="grey" stroke-width="2" d="M363.55,-647.09C340.08,-589.47 271.03,-409.81 301,-360 311.64,-342.32 330.37,-330.23 348.77,-322.12"/>
<polygon fill="grey" stroke="grey" stroke-width="2" points="349.93,-325.42 357.91,-318.46 347.33,-318.92 349.93,-325.42"/>
</g>
<!-- 5&#45;&gt;18 -->
<g id="edge52" class="edge">
<title>5&#45;&gt;18</title>
<path fill="none" stroke="grey" stroke-width="2" d="M375.77,-647.03C383.78,-617.18 400.66,-555.54 417,-504 453.73,-388.14 503.07,-252.23 524.86,-193.06"/>
<polygon fill="grey" stroke="grey" stroke-width="2" points="528.08,-194.42 528.26,-183.83 521.52,-192 528.08,-194.42"/>
</g>
<!-- 6 -->
<g id="node7" class="node">
<title>6</title>
<path fill="none" stroke="#d8c356" stroke-width="2" d="M652.5,-756C652.5,-756 557.5,-756 557.5,-756 551.5,-756 545.5,-750 545.5,-744 545.5,-744 545.5,-732 545.5,-732 545.5,-726 551.5,-720 557.5,-720 557.5,-720 652.5,-720 652.5,-720 658.5,-720 664.5,-726 664.5,-732 664.5,-732 664.5,-744 664.5,-744 664.5,-750 658.5,-756 652.5,-756"/>
<text text-anchor="middle" x="605" y="-735.5" font-family="sans" font-size="10.00">site_numbering_map</text>
</g>
<!-- 6&#45;&gt;5 -->
<g id="edge10" class="edge">
<title>6&#45;&gt;5</title>
<path fill="none" stroke="grey" stroke-width="2" d="M545.04,-719.06C513.94,-709.76 475.73,-698.33 443.03,-688.55"/>
<polygon fill="grey" stroke="grey" stroke-width="2" points="444.28,-685.27 433.7,-685.76 442.28,-691.98 444.28,-685.27"/>
</g>
<!-- 8 -->
<g id="node9" class="node">
<title>8</title>
<path fill="none" stroke="#56d8b9" stroke-width="2" d="M817,-396C817,-396 719,-396 719,-396 713,-396 707,-390 707,-384 707,-384 707,-372 707,-372 707,-366 713,-360 719,-360 719,-360 817,-360 817,-360 823,-360 829,-366 829,-372 829,-372 829,-384 829,-384 829,-390 823,-396 817,-396"/>
<text text-anchor="middle" x="768" y="-375.5" font-family="sans" font-size="10.00">avg_antibody_escape</text>
</g>
<!-- 6&#45;&gt;8 -->
<g id="edge15" class="edge">
<title>6&#45;&gt;8</title>
<path fill="none" stroke="grey" stroke-width="2" d="M621.62,-719.29C658.41,-678.74 745.89,-574.41 777,-468 782.56,-448.97 780.34,-426.79 776.71,-409.33"/>
<polygon fill="grey" stroke="grey" stroke-width="2" points="780.14,-408.61 774.4,-399.7 773.33,-410.24 780.14,-408.61"/>
</g>
<!-- 10 -->
<g id="node11" class="node">
<title>10</title>
<path fill="none" stroke="#80d856" stroke-width="2" d="M534,-468C534,-468 476,-468 476,-468 470,-468 464,-462 464,-456 464,-456 464,-444 464,-444 464,-438 470,-432 476,-432 476,-432 534,-432 534,-432 540,-432 546,-438 546,-444 546,-444 546,-456 546,-456 546,-462 540,-468 534,-468"/>
<text text-anchor="middle" x="505" y="-447.5" font-family="sans" font-size="10.00">fit_polyclonal</text>
</g>
<!-- 6&#45;&gt;10 -->
<g id="edge19" class="edge">
<title>6&#45;&gt;10</title>
<path fill="none" stroke="grey" stroke-width="2" d="M598.74,-719.11C582.05,-671.36 536.3,-540.51 515.52,-481.08"/>
<polygon fill="grey" stroke="grey" stroke-width="2" points="518.86,-480.03 512.25,-471.74 512.25,-482.34 518.86,-480.03"/>
</g>
<!-- 6&#45;&gt;11 -->
<g id="edge23" class="edge">
<title>6&#45;&gt;11</title>
<path fill="none" stroke="grey" stroke-width="2" d="M590.89,-719.15C583.03,-709 573.22,-695.98 565,-684 534,-638.81 501.01,-584.27 481.74,-551.68"/>
<polygon fill="grey" stroke="grey" stroke-width="2" points="484.92,-550.18 476.83,-543.33 478.89,-553.73 484.92,-550.18"/>
</g>
<!-- 6&#45;&gt;12 -->
<g id="edge35" class="edge">
<title>6&#45;&gt;12</title>
<path fill="none" stroke="grey" stroke-width="2" d="M665.41,-731.8C793.77,-719.09 1082,-680.97 1082,-595 1082,-595 1082,-595 1082,-233 1082,-122.03 685.51,-97.61 539.85,-92.38"/>
<polygon fill="grey" stroke="grey" stroke-width="2" points="540.1,-88.89 529.99,-92.05 539.86,-95.88 540.1,-88.89"/>
</g>
<!-- 6&#45;&gt;18 -->
<g id="edge54" class="edge">
<title>6&#45;&gt;18</title>
<path fill="none" stroke="grey" stroke-width="2" d="M605.6,-719.12C607.29,-666.82 612,-509.55 612,-379 612,-379 612,-379 612,-305 612,-264.03 608.34,-251.56 588,-216 582.58,-206.53 575.07,-197.54 567.43,-189.73"/>
<polygon fill="grey" stroke="grey" stroke-width="2" points="570.01,-187.35 560.38,-182.95 565.16,-192.4 570.01,-187.35"/>
</g>
<!-- 7&#45;&gt;6 -->
<g id="edge13" class="edge">
<title>7&#45;&gt;6</title>
<path fill="none" stroke="grey" stroke-width="2" d="M637.9,-791.34C633.4,-784.18 628.09,-775.73 623.06,-767.73"/>
<polygon fill="grey" stroke="grey" stroke-width="2" points="626.15,-766.07 617.86,-759.46 620.22,-769.79 626.15,-766.07"/>
</g>
<!-- 7&#45;&gt;12 -->
<g id="edge26" class="edge">
<title>7&#45;&gt;12</title>
<path fill="none" stroke="grey" stroke-width="2" d="M703.49,-804.18C827.47,-791.71 1120,-753.15 1120,-667 1120,-667 1120,-667 1120,-233 1120,-172.84 1073.21,-167.9 1018,-144 932.86,-107.15 655.93,-95.52 539.41,-92.2"/>
<polygon fill="grey" stroke="grey" stroke-width="2" points="539.8,-88.71 529.7,-91.94 539.6,-95.71 539.8,-88.71"/>
</g>
<!-- 7&#45;&gt;18 -->
<g id="edge46" class="edge">
<title>7&#45;&gt;18</title>
<path fill="none" stroke="grey" stroke-width="2" d="M659.89,-791.08C665.29,-781.13 671.24,-768.31 674,-756 677.5,-740.39 674.56,-735.99 674,-720 668.66,-568.16 650,-530.93 650,-379 650,-379 650,-379 650,-305 650,-261.63 637.46,-249.56 610,-216 601.35,-205.43 590.12,-195.96 579.02,-188.05"/>
<polygon fill="grey" stroke="grey" stroke-width="2" points="581.27,-185.35 571.02,-182.66 577.35,-191.15 581.27,-185.35"/>
</g>
<!-- 8&#45;&gt;0 -->
<g id="edge3" class="edge">
<title>8&#45;&gt;0</title>
<path fill="none" stroke="grey" stroke-width="2" d="M829.88,-372.71C871.71,-367.05 926.19,-354 965,-324 1005.62,-292.6 1030.13,-261.32 1006,-216 940,-92.05 469.28,-36.68 327.38,-22.69"/>
<polygon fill="grey" stroke="grey" stroke-width="2" points="328,-19.24 317.71,-21.76 327.33,-26.2 328,-19.24"/>
</g>
<!-- 8&#45;&gt;12 -->
<g id="edge24" class="edge">
<title>8&#45;&gt;12</title>
<path fill="none" stroke="grey" stroke-width="2" d="M829.69,-360.24C910.95,-335.09 1037.9,-283.26 987,-216 932.87,-144.46 656.77,-108.3 539.64,-95.99"/>
<polygon fill="grey" stroke="grey" stroke-width="2" points="540.15,-92.52 529.84,-94.98 539.43,-99.49 540.15,-92.52"/>
</g>
<!-- 8&#45;&gt;15 -->
<g id="edge41" class="edge">
<title>8&#45;&gt;15</title>
<path fill="none" stroke="grey" stroke-width="2" d="M706.16,-365.2C635.49,-351.73 521.01,-329.89 454.18,-317.14"/>
<polygon fill="grey" stroke="grey" stroke-width="2" points="454.93,-313.72 444.45,-315.29 453.62,-320.6 454.93,-313.72"/>
</g>
<!-- 17 -->
<g id="node18" class="node">
<title>17</title>
<path fill="none" stroke="#ced856" stroke-width="2" d="M865.5,-252C865.5,-252 728.5,-252 728.5,-252 722.5,-252 716.5,-246 716.5,-240 716.5,-240 716.5,-228 716.5,-228 716.5,-222 722.5,-216 728.5,-216 728.5,-216 865.5,-216 865.5,-216 871.5,-216 877.5,-222 877.5,-228 877.5,-228 877.5,-240 877.5,-240 877.5,-246 871.5,-252 865.5,-252"/>
<text text-anchor="middle" x="797" y="-231.5" font-family="sans" font-size="10.00">format_antibody_escape_plot</text>
</g>
<!-- 8&#45;&gt;17 -->
<g id="edge43" class="edge">
<title>8&#45;&gt;17</title>
<path fill="none" stroke="grey" stroke-width="2" d="M771.67,-359.02C776.49,-335.44 785.01,-293.73 790.82,-265.25"/>
<polygon fill="grey" stroke="grey" stroke-width="2" points="794.18,-266.3 792.75,-255.8 787.32,-264.9 794.18,-266.3"/>
</g>
<!-- 8&#45;&gt;18 -->
<g id="edge44" class="edge">
<title>8&#45;&gt;18</title>
<path fill="none" stroke="grey" stroke-width="2" d="M760.73,-359C746.68,-326.29 712.82,-256.7 664,-216 640.98,-196.81 610.04,-183.74 584.35,-175.39"/>
<polygon fill="grey" stroke="grey" stroke-width="2" points="585.7,-172.14 575.11,-172.55 583.64,-178.83 585.7,-172.14"/>
</g>
<!-- 9 -->
<g id="node10" class="node">
<title>9</title>
<path fill="none" stroke="#56d882" stroke-width="2" d="M756,-468C756,-468 690,-468 690,-468 684,-468 678,-462 678,-456 678,-456 678,-444 678,-444 678,-438 684,-432 690,-432 690,-432 756,-432 756,-432 762,-432 768,-438 768,-444 768,-444 768,-456 768,-456 768,-462 762,-468 756,-468"/>
<text text-anchor="middle" x="723" y="-447.5" font-family="sans" font-size="10.00">get_muteffects</text>
</g>
<!-- 9&#45;&gt;8 -->
<g id="edge16" class="edge">
<title>9&#45;&gt;8</title>
<path fill="none" stroke="grey" stroke-width="2" d="M734.36,-431.34C738.96,-424.18 744.39,-415.73 749.53,-407.73"/>
<polygon fill="grey" stroke="grey" stroke-width="2" points="752.39,-409.75 754.85,-399.45 746.5,-405.97 752.39,-409.75"/>
</g>
<!-- 10&#45;&gt;8 -->
<g id="edge17" class="edge">
<title>10&#45;&gt;8</title>
<path fill="none" stroke="grey" stroke-width="2" d="M546.96,-437.83C586.37,-427.34 646.2,-411.42 693.68,-398.78"/>
<polygon fill="grey" stroke="grey" stroke-width="2" points="694.41,-402.21 703.17,-396.26 692.61,-395.45 694.41,-402.21"/>
</g>
<!-- 10&#45;&gt;12 -->
<g id="edge32" class="edge">
<title>10&#45;&gt;12</title>
<path fill="none" stroke="grey" stroke-width="2" d="M463.46,-444.17C409.73,-436.97 320.7,-421.47 301,-396 256.29,-338.19 141.67,-384.54 349,-144 370.6,-118.94 405.45,-105.68 434.71,-98.69"/>
<polygon fill="grey" stroke="grey" stroke-width="2" points="435.28,-102.14 444.32,-96.62 433.81,-95.3 435.28,-102.14"/>
</g>
<!-- 10&#45;&gt;15 -->
<g id="edge42" class="edge">
<title>10&#45;&gt;15</title>
<path fill="none" stroke="grey" stroke-width="2" d="M492.37,-431.18C479.55,-413.15 459.06,-384.52 441,-360 434.98,-351.83 428.38,-343.02 422.3,-334.97"/>
<polygon fill="grey" stroke="grey" stroke-width="2" points="425.09,-332.86 416.26,-327 419.51,-337.09 425.09,-332.86"/>
</g>
<!-- 10&#45;&gt;18 -->
<g id="edge51" class="edge">
<title>10&#45;&gt;18</title>
<path fill="none" stroke="grey" stroke-width="2" d="M506.94,-431.11C512.09,-383.56 526.18,-253.6 532.66,-193.83"/>
<polygon fill="grey" stroke="grey" stroke-width="2" points="536.14,-194.21 533.74,-183.89 529.18,-193.46 536.14,-194.21"/>
</g>
<!-- 11&#45;&gt;10 -->
<g id="edge18" class="edge">
<title>11&#45;&gt;10</title>
<path fill="none" stroke="grey" stroke-width="2" d="M475.09,-503.34C479.14,-496.26 483.9,-487.92 488.43,-480"/>
<polygon fill="grey" stroke="grey" stroke-width="2" points="491.35,-481.95 493.27,-471.53 485.27,-478.48 491.35,-481.95"/>
</g>
<!-- 13 -->
<g id="node14" class="node">
<title>13</title>
<path fill="none" stroke="#d8ac56" stroke-width="2" d="M420,-396C420,-396 322,-396 322,-396 316,-396 310,-390 310,-384 310,-384 310,-372 310,-372 310,-366 316,-360 322,-360 322,-360 420,-360 420,-360 426,-360 432,-366 432,-372 432,-372 432,-384 432,-384 432,-390 426,-396 420,-396"/>
<text text-anchor="middle" x="371" y="-375.5" font-family="sans" font-size="10.00">analyze_prob_escape</text>
</g>
<!-- 11&#45;&gt;13 -->
<g id="edge37" class="edge">
<title>11&#45;&gt;13</title>
<path fill="none" stroke="grey" stroke-width="2" d="M453.09,-503.02C437.13,-478.9 408.62,-435.83 389.76,-407.34"/>
<polygon fill="grey" stroke="grey" stroke-width="2" points="392.92,-405.77 384.48,-399.36 387.08,-409.63 392.92,-405.77"/>
</g>
<!-- 12&#45;&gt;0 -->
<g id="edge1" class="edge">
<title>12&#45;&gt;0</title>
<path fill="none" stroke="grey" stroke-width="2" d="M447.01,-75C412.08,-62.78 361.66,-45.13 326.79,-32.93"/>
<polygon fill="grey" stroke="grey" stroke-width="2" points="328.16,-29.7 317.57,-29.7 325.85,-36.31 328.16,-29.7"/>
</g>
<!-- 13&#45;&gt;12 -->
<g id="edge34" class="edge">
<title>13&#45;&gt;12</title>
<path fill="none" stroke="grey" stroke-width="2" d="M357.53,-359.43C350.84,-349.59 343.46,-336.76 340,-324 336.41,-310.76 335.38,-237.54 341,-216 350.19,-180.79 353.8,-169.26 380,-144 395.56,-129 416.19,-117.42 435.19,-108.98"/>
<polygon fill="grey" stroke="grey" stroke-width="2" points="436.4,-112.26 444.26,-105.17 433.69,-105.81 436.4,-112.26"/>
</g>
<!-- 13&#45;&gt;15 -->
<g id="edge40" class="edge">
<title>13&#45;&gt;15</title>
<path fill="none" stroke="grey" stroke-width="2" d="M378.57,-359.34C381.5,-352.51 384.93,-344.5 388.21,-336.83"/>
<polygon fill="grey" stroke="grey" stroke-width="2" points="391.41,-338.25 392.14,-327.68 384.98,-335.5 391.41,-338.25"/>
</g>
<!-- 13&#45;&gt;18 -->
<g id="edge53" class="edge">
<title>13&#45;&gt;18</title>
<path fill="none" stroke="grey" stroke-width="2" d="M362.72,-359.04C349.06,-326.39 326.52,-256.89 361,-216 391.7,-179.59 446.53,-167.65 486.66,-164.01"/>
<polygon fill="grey" stroke="grey" stroke-width="2" points="486.9,-167.5 496.62,-163.29 486.4,-160.52 486.9,-167.5"/>
</g>
<!-- 14 -->
<g id="node15" class="node">
<title>14</title>
<path fill="none" stroke="#56a9d8" stroke-width="2" d="M419.5,-252C419.5,-252 382.5,-252 382.5,-252 376.5,-252 370.5,-246 370.5,-240 370.5,-240 370.5,-228 370.5,-228 370.5,-222 376.5,-216 382.5,-216 382.5,-216 419.5,-216 419.5,-216 425.5,-216 431.5,-222 431.5,-228 431.5,-228 431.5,-240 431.5,-240 431.5,-246 425.5,-252 419.5,-252"/>
<text text-anchor="middle" x="401" y="-231.5" font-family="sans" font-size="10.00">subindex</text>
</g>
<!-- 14&#45;&gt;12 -->
<g id="edge27" class="edge">
<title>14&#45;&gt;12</title>
<path fill="none" stroke="grey" stroke-width="2" d="M411.89,-215.02C426.43,-191.01 452.35,-148.21 469.61,-119.72"/>
<polygon fill="grey" stroke="grey" stroke-width="2" points="472.44,-121.79 474.63,-111.43 466.45,-118.17 472.44,-121.79"/>
</g>
<!-- 14&#45;&gt;18 -->
<g id="edge47" class="edge">
<title>14&#45;&gt;18</title>
<path fill="none" stroke="grey" stroke-width="2" d="M432.31,-216.76C449.47,-207.87 471.06,-196.67 490.09,-186.81"/>
<polygon fill="grey" stroke="grey" stroke-width="2" points="491.59,-189.97 498.85,-182.26 488.36,-183.76 491.59,-189.97"/>
</g>
<!-- 15&#45;&gt;12 -->
<g id="edge28" class="edge">
<title>15&#45;&gt;12</title>
<path fill="none" stroke="grey" stroke-width="2" d="M382.85,-287.12C374.46,-277.58 365.39,-265.12 361,-252 355.92,-236.83 355.03,-230.85 361,-216 378.06,-173.54 417.72,-138.28 448.03,-116.16"/>
<polygon fill="grey" stroke="grey" stroke-width="2" points="449.69,-119.27 455.83,-110.64 445.65,-113.55 449.69,-119.27"/>
</g>
<!-- 15&#45;&gt;14 -->
<g id="edge38" class="edge">
<title>15&#45;&gt;14</title>
<path fill="none" stroke="grey" stroke-width="2" d="M401,-287.34C401,-280.75 401,-273.08 401,-265.67"/>
<polygon fill="grey" stroke="grey" stroke-width="2" points="404.5,-265.93 401,-255.93 397.5,-265.93 404.5,-265.93"/>
</g>
<!-- 15&#45;&gt;18 -->
<g id="edge48" class="edge">
<title>15&#45;&gt;18</title>
<path fill="none" stroke="grey" stroke-width="2" d="M417.4,-287.15C434.05,-269.09 460.63,-240.43 484,-216 492.2,-207.43 501.22,-198.17 509.41,-189.83"/>
<polygon fill="grey" stroke="grey" stroke-width="2" points="511.9,-192.29 516.43,-182.71 506.92,-187.38 511.9,-192.29"/>
</g>
<!-- 16 -->
<g id="node17" class="node">
<title>16</title>
<path fill="none" stroke="#d87556" stroke-width="2" d="M966,-252C966,-252 908,-252 908,-252 902,-252 896,-246 896,-240 896,-240 896,-228 896,-228 896,-222 902,-216 908,-216 908,-216 966,-216 966,-216 972,-216 978,-222 978,-228 978,-228 978,-240 978,-240 978,-246 972,-252 966,-252"/>
<text text-anchor="middle" x="937" y="-231.5" font-family="sans" font-size="10.00">make_graphs</text>
</g>
<!-- 16&#45;&gt;12 -->
<g id="edge29" class="edge">
<title>16&#45;&gt;12</title>
<path fill="none" stroke="grey" stroke-width="2" d="M895.01,-218.64C892.3,-217.74 889.61,-216.85 887,-216 762.51,-175.39 615.35,-130.1 538.93,-106.78"/>
<polygon fill="grey" stroke="grey" stroke-width="2" points="540.33,-103.54 529.74,-103.98 538.29,-110.24 540.33,-103.54"/>
</g>
<!-- 16&#45;&gt;18 -->
<g id="edge49" class="edge">
<title>16&#45;&gt;18</title>
<path fill="none" stroke="grey" stroke-width="2" d="M895.15,-218.17C892.41,-217.38 889.67,-216.65 887,-216 780.9,-190.17 653.52,-174.71 585.15,-167.63"/>
<polygon fill="grey" stroke="grey" stroke-width="2" points="585.6,-164.16 575.3,-166.63 584.89,-171.12 585.6,-164.16"/>
</g>
<!-- 17&#45;&gt;12 -->
<g id="edge25" class="edge">
<title>17&#45;&gt;12</title>
<path fill="none" stroke="grey" stroke-width="2" d="M757.74,-215.02C701.84,-189.41 599.27,-142.43 537.69,-114.22"/>
<polygon fill="grey" stroke="grey" stroke-width="2" points="539.24,-111.08 528.7,-110.1 536.33,-117.45 539.24,-111.08"/>
</g>
<!-- 17&#45;&gt;18 -->
<g id="edge45" class="edge">
<title>17&#45;&gt;18</title>
<path fill="none" stroke="grey" stroke-width="2" d="M730.12,-215.06C684.64,-202.87 625.51,-187.01 584.52,-176.01"/>
<polygon fill="grey" stroke="grey" stroke-width="2" points="585.64,-172.69 575.07,-173.48 583.82,-179.45 585.64,-172.69"/>
</g>
<!-- 18&#45;&gt;12 -->
<g id="edge30" class="edge">
<title>18&#45;&gt;12</title>
<path fill="none" stroke="grey" stroke-width="2" d="M523.64,-143.34C518.57,-136.1 512.57,-127.53 506.92,-119.45"/>
<polygon fill="grey" stroke="grey" stroke-width="2" points="509.87,-117.57 501.27,-111.38 504.13,-121.58 509.87,-117.57"/>
</g>
</g>
</svg>
