<?xml version="1.0" encoding="UTF-8" standalone="no"?>
<!DOCTYPE svg PUBLIC "-//W3C//DTD SVG 1.1//EN"
 "http://www.w3.org/Graphics/SVG/1.1/DTD/svg11.dtd">
<!-- Generated by graphviz version 7.1.0 (20230122.1345)
 -->
<!-- Title: snakemake_dag Pages: 1 -->
<svg width="1524pt" height="980pt"
 viewBox="0.00 0.00 1524.00 980.00" xmlns="http://www.w3.org/2000/svg" xmlns:xlink="http://www.w3.org/1999/xlink">
<g id="graph0" class="graph" transform="scale(1 1) rotate(0) translate(4 976)">
<title>snakemake_dag</title>
<polygon fill="white" stroke="none" points="-4,4 -4,-976 1520,-976 1520,4 -4,4"/>
<!-- 0 -->
<g id="node1" class="node">
<title>0</title>
<path fill="none" stroke="#56d8b9" stroke-width="2" d="M1417,-36C1417,-36 1387,-36 1387,-36 1381,-36 1375,-30 1375,-24 1375,-24 1375,-12 1375,-12 1375,-6 1381,0 1387,0 1387,0 1417,0 1417,0 1423,0 1429,-6 1429,-12 1429,-12 1429,-24 1429,-24 1429,-30 1423,-36 1417,-36"/>
<text text-anchor="middle" x="1402" y="-15.5" font-family="sans" font-size="10.00">all</text>
</g>
<!-- 1 -->
<g id="node2" class="node">
<title>1</title>
<path fill="none" stroke="#56d8a2" stroke-width="2" d="M1154,-828C1154,-828 1094,-828 1094,-828 1088,-828 1082,-822 1082,-816 1082,-816 1082,-804 1082,-804 1082,-798 1088,-792 1094,-792 1094,-792 1154,-792 1154,-792 1160,-792 1166,-798 1166,-804 1166,-804 1166,-816 1166,-816 1166,-822 1160,-828 1154,-828"/>
<text text-anchor="middle" x="1124" y="-807.5" font-family="sans" font-size="10.00">variant_counts</text>
</g>
<!-- 1&#45;&gt;0 -->
<g id="edge2" class="edge">
<title>1&#45;&gt;0</title>
<path fill="none" stroke="grey" stroke-width="2" d="M1166.93,-805.43C1219.75,-799.88 1311.36,-786.47 1384,-756 1449.25,-728.63 1516,-737.76 1516,-667 1516,-667 1516,-667 1516,-161 1516,-111.51 1473.36,-69.44 1440.24,-44.23"/>
<polygon fill="grey" stroke="grey" stroke-width="2" points="1442.47,-41.52 1432.33,-38.44 1438.33,-47.17 1442.47,-41.52"/>
</g>
<!-- 5 -->
<g id="node6" class="node">
<title>5</title>
<path fill="none" stroke="#78d856" stroke-width="2" d="M862.5,-756C862.5,-756 763.5,-756 763.5,-756 757.5,-756 751.5,-750 751.5,-744 751.5,-744 751.5,-732 751.5,-732 751.5,-726 757.5,-720 763.5,-720 763.5,-720 862.5,-720 862.5,-720 868.5,-720 874.5,-726 874.5,-732 874.5,-732 874.5,-744 874.5,-744 874.5,-750 868.5,-756 862.5,-756"/>
<text text-anchor="middle" x="813" y="-735.5" font-family="sans" font-size="10.00">analyze_variant_counts</text>
</g>
<!-- 1&#45;&gt;5 -->
<g id="edge11" class="edge">
<title>1&#45;&gt;5</title>
<path fill="none" stroke="grey" stroke-width="2" d="M1081.08,-799.34C1031.3,-788.14 948.34,-769.46 887.87,-755.85"/>
<polygon fill="grey" stroke="grey" stroke-width="2" points="888.81,-752.47 878.28,-753.69 887.27,-759.3 888.81,-752.47"/>
</g>
<!-- 11 -->
<g id="node12" class="node">
<title>11</title>
<path fill="none" stroke="#d8c356" stroke-width="2" d="M1228.5,-612C1228.5,-612 1181.5,-612 1181.5,-612 1175.5,-612 1169.5,-606 1169.5,-600 1169.5,-600 1169.5,-588 1169.5,-588 1169.5,-582 1175.5,-576 1181.5,-576 1181.5,-576 1228.5,-576 1228.5,-576 1234.5,-576 1240.5,-582 1240.5,-588 1240.5,-588 1240.5,-600 1240.5,-600 1240.5,-606 1234.5,-612 1228.5,-612"/>
<text text-anchor="middle" x="1205" y="-591.5" font-family="sans" font-size="10.00">func_scores</text>
</g>
<!-- 1&#45;&gt;11 -->
<g id="edge23" class="edge">
<title>1&#45;&gt;11</title>
<path fill="none" stroke="grey" stroke-width="2" d="M1135.67,-791.39C1141.99,-781.32 1149.58,-768.29 1155,-756 1174.4,-711.98 1189.5,-658.12 1197.82,-625.2"/>
<polygon fill="grey" stroke="grey" stroke-width="2" points="1201.14,-626.36 1200.15,-615.81 1194.35,-624.68 1201.14,-626.36"/>
</g>
<!-- 13 -->
<g id="node14" class="node">
<title>13</title>
<path fill="none" stroke="#d8b456" stroke-width="2" d="M753.5,-612C753.5,-612 702.5,-612 702.5,-612 696.5,-612 690.5,-606 690.5,-600 690.5,-600 690.5,-588 690.5,-588 690.5,-582 696.5,-576 702.5,-576 702.5,-576 753.5,-576 753.5,-576 759.5,-576 765.5,-582 765.5,-588 765.5,-588 765.5,-600 765.5,-600 765.5,-606 759.5,-612 753.5,-612"/>
<text text-anchor="middle" x="728" y="-591.5" font-family="sans" font-size="10.00">prob_escape</text>
</g>
<!-- 1&#45;&gt;13 -->
<g id="edge29" class="edge">
<title>1&#45;&gt;13</title>
<path fill="none" stroke="grey" stroke-width="2" d="M1090.92,-791.12C1019.87,-752.73 852.66,-662.37 772.45,-619.02"/>
<polygon fill="grey" stroke="grey" stroke-width="2" points="774.39,-616.09 763.93,-614.42 771.06,-622.25 774.39,-616.09"/>
</g>
<!-- 14 -->
<g id="node15" class="node">
<title>14</title>
<path fill="none" stroke="#56c9d8" stroke-width="2" d="M682,-108C682,-108 632,-108 632,-108 626,-108 620,-102 620,-96 620,-96 620,-84 620,-84 620,-78 626,-72 632,-72 632,-72 682,-72 682,-72 688,-72 694,-78 694,-84 694,-84 694,-96 694,-96 694,-102 688,-108 682,-108"/>
<text text-anchor="middle" x="657" y="-87.5" font-family="sans" font-size="10.00">sphinx_build</text>
</g>
<!-- 1&#45;&gt;14 -->
<g id="edge37" class="edge">
<title>1&#45;&gt;14</title>
<path fill="none" stroke="grey" stroke-width="2" d="M1166.96,-806.32C1213.04,-801.75 1286.87,-789.39 1341,-756 1420.97,-706.68 1478,-688.96 1478,-595 1478,-595 1478,-595 1478,-233 1478,-120.9 1351.26,-169.06 1242,-144 1048.18,-99.54 810.22,-92.06 707.81,-91.02"/>
<polygon fill="grey" stroke="grey" stroke-width="2" points="707.91,-87.52 697.88,-90.94 707.85,-94.52 707.91,-87.52"/>
</g>
<!-- 22 -->
<g id="node23" class="node">
<title>22</title>
<path fill="none" stroke="#5682d8" stroke-width="2" d="M821.5,-180C821.5,-180 778.5,-180 778.5,-180 772.5,-180 766.5,-174 766.5,-168 766.5,-168 766.5,-156 766.5,-156 766.5,-150 772.5,-144 778.5,-144 778.5,-144 821.5,-144 821.5,-144 827.5,-144 833.5,-150 833.5,-156 833.5,-156 833.5,-168 833.5,-168 833.5,-174 827.5,-180 821.5,-180"/>
<text text-anchor="middle" x="800" y="-159.5" font-family="sans" font-size="10.00">docs_index</text>
</g>
<!-- 1&#45;&gt;22 -->
<g id="edge66" class="edge">
<title>1&#45;&gt;22</title>
<path fill="none" stroke="grey" stroke-width="2" d="M1166.91,-803.34C1235.94,-791.57 1364,-757.53 1364,-667 1364,-667 1364,-667 1364,-377 1364,-272.62 1287.23,-260.9 1193,-216 1132.64,-187.24 937.63,-171.61 847.05,-165.74"/>
<polygon fill="grey" stroke="grey" stroke-width="2" points="847.43,-162.26 837.23,-165.12 846.99,-169.25 847.43,-162.26"/>
</g>
<!-- 2 -->
<g id="node3" class="node">
<title>2</title>
<path fill="none" stroke="#61d856" stroke-width="2" d="M866.5,-900C866.5,-900 801.5,-900 801.5,-900 795.5,-900 789.5,-894 789.5,-888 789.5,-888 789.5,-876 789.5,-876 789.5,-870 795.5,-864 801.5,-864 801.5,-864 866.5,-864 866.5,-864 872.5,-864 878.5,-870 878.5,-876 878.5,-876 878.5,-888 878.5,-888 878.5,-894 872.5,-900 866.5,-900"/>
<text text-anchor="middle" x="834" y="-879.5" font-family="sans" font-size="10.00">count_barcodes</text>
</g>
<!-- 2&#45;&gt;1 -->
<g id="edge7" class="edge">
<title>2&#45;&gt;1</title>
<path fill="none" stroke="grey" stroke-width="2" d="M879.31,-870.06C930.49,-857.71 1013.77,-837.61 1068.73,-824.34"/>
<polygon fill="grey" stroke="grey" stroke-width="2" points="1069.52,-827.75 1078.42,-822 1067.88,-820.95 1069.52,-827.75"/>
</g>
<!-- 2&#45;&gt;5 -->
<g id="edge12" class="edge">
<title>2&#45;&gt;5</title>
<path fill="none" stroke="grey" stroke-width="2" d="M831.34,-863.02C827.87,-839.54 821.74,-798.11 817.53,-769.64"/>
<polygon fill="grey" stroke="grey" stroke-width="2" points="821.01,-769.21 816.08,-759.83 814.08,-770.24 821.01,-769.21"/>
</g>
<!-- 3 -->
<g id="node4" class="node">
<title>3</title>
<path fill="none" stroke="#566bd8" stroke-width="2" d="M787,-972C787,-972 697,-972 697,-972 691,-972 685,-966 685,-960 685,-960 685,-948 685,-948 685,-942 691,-936 697,-936 697,-936 787,-936 787,-936 793,-936 799,-942 799,-948 799,-948 799,-960 799,-960 799,-966 793,-972 787,-972"/>
<text text-anchor="middle" x="742" y="-951.5" font-family="sans" font-size="10.00">get_prebuilt_variants</text>
</g>
<!-- 3&#45;&gt;1 -->
<g id="edge6" class="edge">
<title>3&#45;&gt;1</title>
<path fill="none" stroke="grey" stroke-width="2" d="M791.37,-935.08C819.43,-924.86 855.21,-911.78 887,-900 949.56,-876.82 1021.25,-849.84 1069.25,-831.72"/>
<polygon fill="grey" stroke="grey" stroke-width="2" points="1070.28,-835.07 1078.4,-828.26 1067.8,-828.52 1070.28,-835.07"/>
</g>
<!-- 3&#45;&gt;2 -->
<g id="edge8" class="edge">
<title>3&#45;&gt;2</title>
<path fill="none" stroke="grey" stroke-width="2" d="M765.22,-935.34C775.81,-927.27 788.57,-917.57 800.2,-908.72"/>
<polygon fill="grey" stroke="grey" stroke-width="2" points="802.22,-911.58 808.06,-902.73 797.99,-906 802.22,-911.58"/>
</g>
<!-- 3&#45;&gt;5 -->
<g id="edge13" class="edge">
<title>3&#45;&gt;5</title>
<path fill="none" stroke="grey" stroke-width="2" d="M747.93,-935.12C760.1,-898.46 787.98,-814.41 802.99,-769.16"/>
<polygon fill="grey" stroke="grey" stroke-width="2" points="806.26,-770.44 806.08,-759.85 799.61,-768.24 806.26,-770.44"/>
</g>
<!-- 7 -->
<g id="node8" class="node">
<title>7</title>
<path fill="none" stroke="#569ad8" stroke-width="2" d="M392,-900C392,-900 314,-900 314,-900 308,-900 302,-894 302,-888 302,-888 302,-876 302,-876 302,-870 308,-864 314,-864 314,-864 392,-864 392,-864 398,-864 404,-870 404,-876 404,-876 404,-888 404,-888 404,-894 398,-900 392,-900"/>
<text text-anchor="middle" x="353" y="-879.5" font-family="sans" font-size="10.00">translate_geneseq</text>
</g>
<!-- 3&#45;&gt;7 -->
<g id="edge15" class="edge">
<title>3&#45;&gt;7</title>
<path fill="none" stroke="grey" stroke-width="2" d="M684.18,-942.6C612.76,-929.74 491.6,-907.94 417.31,-894.57"/>
<polygon fill="grey" stroke="grey" stroke-width="2" points="418.35,-891.2 407.88,-892.88 417.11,-898.09 418.35,-891.2"/>
</g>
<!-- 3&#45;&gt;11 -->
<g id="edge22" class="edge">
<title>3&#45;&gt;11</title>
<path fill="none" stroke="grey" stroke-width="2" d="M799.71,-953.47C966.95,-953.3 1440,-941.31 1440,-811 1440,-811 1440,-811 1440,-737 1440,-650.91 1323.03,-615.61 1254.14,-602.29"/>
<polygon fill="grey" stroke="grey" stroke-width="2" points="1254.9,-598.87 1244.44,-600.53 1253.65,-605.76 1254.9,-598.87"/>
</g>
<!-- 3&#45;&gt;13 -->
<g id="edge28" class="edge">
<title>3&#45;&gt;13</title>
<path fill="none" stroke="grey" stroke-width="2" d="M738.06,-935.17C732.5,-908.36 723,-856.02 723,-811 723,-811 723,-811 723,-737 723,-698.63 724.85,-654.46 726.29,-625.71"/>
<polygon fill="grey" stroke="grey" stroke-width="2" points="729.78,-626.12 726.81,-615.95 722.79,-625.75 729.78,-626.12"/>
</g>
<!-- 3&#45;&gt;14 -->
<g id="edge42" class="edge">
<title>3&#45;&gt;14</title>
<path fill="none" stroke="grey" stroke-width="2" d="M684.09,-948.05C509.46,-932.34 0,-880.55 0,-811 0,-811 0,-811 0,-233 0,-188.06 10.44,-168.69 48,-144 94.19,-113.64 468.45,-97.6 606.29,-92.67"/>
<polygon fill="grey" stroke="grey" stroke-width="2" points="606.35,-96.17 616.22,-92.32 606.11,-89.18 606.35,-96.17"/>
</g>
<!-- 3&#45;&gt;22 -->
<g id="edge70" class="edge">
<title>3&#45;&gt;22</title>
<path fill="none" stroke="grey" stroke-width="2" d="M734.58,-935.12C730.63,-924.98 725.98,-911.95 723,-900 691.69,-774.49 690.36,-741.02 681,-612 671.65,-483.14 733.87,-290.14 735,-288 745.56,-267.99 759.17,-271.29 771,-252 782.04,-234.01 789.34,-211.36 793.86,-193.41"/>
<polygon fill="grey" stroke="grey" stroke-width="2" points="797.26,-194.24 796.1,-183.71 790.44,-192.67 797.26,-194.24"/>
</g>
<!-- 4 -->
<g id="node5" class="node">
<title>4</title>
<path fill="none" stroke="#d6d856" stroke-width="2" d="M1062,-684C1062,-684 922,-684 922,-684 916,-684 910,-678 910,-672 910,-672 910,-660 910,-660 910,-654 916,-648 922,-648 922,-648 1062,-648 1062,-648 1068,-648 1074,-654 1074,-660 1074,-660 1074,-672 1074,-672 1074,-678 1068,-684 1062,-684"/>
<text text-anchor="middle" x="992" y="-663.5" font-family="sans" font-size="10.00">check_adequate_variant_counts</text>
</g>
<!-- 4&#45;&gt;0 -->
<g id="edge1" class="edge">
<title>4&#45;&gt;0</title>
<path fill="none" stroke="grey" stroke-width="2" d="M1025.67,-647.07C1129.86,-590.46 1440,-413.03 1440,-307 1440,-307 1440,-307 1440,-161 1440,-121.16 1425.87,-77.11 1414.85,-48.8"/>
<polygon fill="grey" stroke="grey" stroke-width="2" points="1418.19,-47.73 1411.19,-39.77 1411.7,-50.36 1418.19,-47.73"/>
</g>
<!-- 4&#45;&gt;11 -->
<g id="edge24" class="edge">
<title>4&#45;&gt;11</title>
<path fill="none" stroke="grey" stroke-width="2" d="M1047.89,-647.03C1079.38,-636.86 1119.42,-623.83 1155,-612 1155.55,-611.82 1156.11,-611.63 1156.67,-611.44"/>
<polygon fill="grey" stroke="grey" stroke-width="2" points="1157.46,-614.87 1165.83,-608.37 1155.23,-608.23 1157.46,-614.87"/>
</g>
<!-- 4&#45;&gt;13 -->
<g id="edge30" class="edge">
<title>4&#45;&gt;13</title>
<path fill="none" stroke="grey" stroke-width="2" d="M924.36,-647.06C879.04,-635.05 820.33,-619.48 778.95,-608.51"/>
<polygon fill="grey" stroke="grey" stroke-width="2" points="779.93,-605.15 769.36,-605.97 778.13,-611.91 779.93,-605.15"/>
</g>
<!-- 5&#45;&gt;4 -->
<g id="edge9" class="edge">
<title>5&#45;&gt;4</title>
<path fill="none" stroke="grey" stroke-width="2" d="M858.63,-719.15C881.58,-710.18 909.65,-699.21 934.1,-689.64"/>
<polygon fill="grey" stroke="grey" stroke-width="2" points="935.28,-692.94 943.32,-686.04 932.73,-686.42 935.28,-692.94"/>
</g>
<!-- 5&#45;&gt;14 -->
<g id="edge40" class="edge">
<title>5&#45;&gt;14</title>
<path fill="none" stroke="grey" stroke-width="2" d="M776.4,-719.02C632.58,-647.79 114,-385.54 114,-307 114,-307 114,-307 114,-233 114,-131.74 471.88,-101.31 606.56,-93.44"/>
<polygon fill="grey" stroke="grey" stroke-width="2" points="606.44,-96.95 616.23,-92.89 606.05,-89.96 606.44,-96.95"/>
</g>
<!-- 18 -->
<g id="node19" class="node">
<title>18</title>
<path fill="none" stroke="#56b1d8" stroke-width="2" d="M806,-324C806,-324 756,-324 756,-324 750,-324 744,-318 744,-312 744,-312 744,-300 744,-300 744,-294 750,-288 756,-288 756,-288 806,-288 806,-288 812,-288 818,-294 818,-300 818,-300 818,-312 818,-312 818,-318 812,-324 806,-324"/>
<text text-anchor="middle" x="781" y="-303.5" font-family="sans" font-size="10.00">make_nblink</text>
</g>
<!-- 5&#45;&gt;18 -->
<g id="edge53" class="edge">
<title>5&#45;&gt;18</title>
<path fill="none" stroke="grey" stroke-width="2" d="M811.67,-719.07C806.73,-652.81 789.5,-421.26 783.27,-337.52"/>
<polygon fill="grey" stroke="grey" stroke-width="2" points="786.76,-337.26 782.53,-327.55 779.78,-337.78 786.76,-337.26"/>
</g>
<!-- 5&#45;&gt;22 -->
<g id="edge69" class="edge">
<title>5&#45;&gt;22</title>
<path fill="none" stroke="grey" stroke-width="2" d="M826.45,-719.26C844.69,-693.39 875,-643.15 875,-595 875,-595 875,-595 875,-521 875,-383.98 874.5,-345.59 830,-216 827.21,-207.86 823.16,-199.54 818.93,-191.98"/>
<polygon fill="grey" stroke="grey" stroke-width="2" points="821.98,-190.25 813.86,-183.45 815.96,-193.84 821.98,-190.25"/>
</g>
<!-- 6 -->
<g id="node7" class="node">
<title>6</title>
<path fill="none" stroke="#d85656" stroke-width="2" d="M601,-828C601,-828 511,-828 511,-828 505,-828 499,-822 499,-816 499,-816 499,-804 499,-804 499,-798 505,-792 511,-792 511,-792 601,-792 601,-792 607,-792 613,-798 613,-804 613,-804 613,-816 613,-816 613,-822 607,-828 601,-828"/>
<text text-anchor="middle" x="556" y="-807.5" font-family="sans" font-size="10.00">site_numbering_map</text>
</g>
<!-- 6&#45;&gt;5 -->
<g id="edge10" class="edge">
<title>6&#45;&gt;5</title>
<path fill="none" stroke="grey" stroke-width="2" d="M614,-793.2C650.73,-783.2 698.6,-770.16 738.19,-759.38"/>
<polygon fill="grey" stroke="grey" stroke-width="2" points="739.08,-762.76 747.8,-756.76 737.24,-756.01 739.08,-762.76"/>
</g>
<!-- 8 -->
<g id="node9" class="node">
<title>8</title>
<path fill="none" stroke="#56d863" stroke-width="2" d="M526.5,-396C526.5,-396 435.5,-396 435.5,-396 429.5,-396 423.5,-390 423.5,-384 423.5,-384 423.5,-372 423.5,-372 423.5,-366 429.5,-360 435.5,-360 435.5,-360 526.5,-360 526.5,-360 532.5,-360 538.5,-366 538.5,-372 538.5,-372 538.5,-384 538.5,-384 538.5,-390 532.5,-396 526.5,-396"/>
<text text-anchor="middle" x="481" y="-375.5" font-family="sans" font-size="10.00">avg_antibody_escape</text>
</g>
<!-- 6&#45;&gt;8 -->
<g id="edge18" class="edge">
<title>6&#45;&gt;8</title>
<path fill="none" stroke="grey" stroke-width="2" d="M527.82,-791.15C494.06,-767.31 442,-721.69 442,-667 442,-667 442,-667 442,-521 442,-481.09 456.5,-437.06 467.82,-408.77"/>
<polygon fill="grey" stroke="grey" stroke-width="2" points="470.96,-410.32 471.57,-399.74 464.5,-407.63 470.96,-410.32"/>
</g>
<!-- 10 -->
<g id="node11" class="node">
<title>10</title>
<path fill="none" stroke="#d88556" stroke-width="2" d="M1094,-540C1094,-540 1020,-540 1020,-540 1014,-540 1008,-534 1008,-528 1008,-528 1008,-516 1008,-516 1008,-510 1014,-504 1020,-504 1020,-504 1094,-504 1094,-504 1100,-504 1106,-510 1106,-516 1106,-516 1106,-528 1106,-528 1106,-534 1100,-540 1094,-540"/>
<text text-anchor="middle" x="1057" y="-519.5" font-family="sans" font-size="10.00">fit_globalepistasis</text>
</g>
<!-- 6&#45;&gt;10 -->
<g id="edge21" class="edge">
<title>6&#45;&gt;10</title>
<path fill="none" stroke="grey" stroke-width="2" d="M587.34,-791.11C673.8,-741.75 915.78,-603.61 1014.38,-547.33"/>
<polygon fill="grey" stroke="grey" stroke-width="2" points="1016.09,-550.38 1023.04,-542.38 1012.62,-544.3 1016.09,-550.38"/>
</g>
<!-- 6&#45;&gt;11 -->
<g id="edge25" class="edge">
<title>6&#45;&gt;11</title>
<path fill="none" stroke="grey" stroke-width="2" d="M613.94,-804.84C714.71,-795.59 926.43,-767.09 1083,-684 1116.49,-666.23 1151.07,-640.14 1174.82,-620.8"/>
<polygon fill="grey" stroke="grey" stroke-width="2" points="1176.81,-623.7 1182.29,-614.63 1172.35,-618.3 1176.81,-623.7"/>
</g>
<!-- 12 -->
<g id="node13" class="node">
<title>12</title>
<path fill="none" stroke="#56d8d0" stroke-width="2" d="M646.5,-468C646.5,-468 593.5,-468 593.5,-468 587.5,-468 581.5,-462 581.5,-456 581.5,-456 581.5,-444 581.5,-444 581.5,-438 587.5,-432 593.5,-432 593.5,-432 646.5,-432 646.5,-432 652.5,-432 658.5,-438 658.5,-444 658.5,-444 658.5,-456 658.5,-456 658.5,-462 652.5,-468 646.5,-468"/>
<text text-anchor="middle" x="620" y="-447.5" font-family="sans" font-size="10.00">fit_polyclonal</text>
</g>
<!-- 6&#45;&gt;12 -->
<g id="edge27" class="edge">
<title>6&#45;&gt;12</title>
<path fill="none" stroke="grey" stroke-width="2" d="M547.94,-791.03C536.79,-764.48 518,-712.94 518,-667 518,-667 518,-667 518,-593 518,-545.41 556.25,-502.85 585.91,-477.01"/>
<polygon fill="grey" stroke="grey" stroke-width="2" points="587.84,-479.96 593.25,-470.85 583.34,-474.6 587.84,-479.96"/>
</g>
<!-- 6&#45;&gt;13 -->
<g id="edge31" class="edge">
<title>6&#45;&gt;13</title>
<path fill="none" stroke="grey" stroke-width="2" d="M570.37,-791.12C600.34,-753.83 669.72,-667.51 705.6,-622.86"/>
<polygon fill="grey" stroke="grey" stroke-width="2" points="708.12,-625.32 711.65,-615.34 702.66,-620.94 708.12,-625.32"/>
</g>
<!-- 6&#45;&gt;14 -->
<g id="edge32" class="edge">
<title>6&#45;&gt;14</title>
<path fill="none" stroke="grey" stroke-width="2" d="M515.9,-791.12C400.54,-736.64 76,-560.83 76,-307 76,-307 76,-307 76,-233 76,-179.52 109.29,-168.18 157,-144 234.72,-104.62 495.29,-94.43 606.26,-91.85"/>
<polygon fill="grey" stroke="grey" stroke-width="2" points="606.08,-95.35 616,-91.64 605.93,-88.36 606.08,-95.35"/>
</g>
<!-- 6&#45;&gt;22 -->
<g id="edge61" class="edge">
<title>6&#45;&gt;22</title>
<path fill="none" stroke="grey" stroke-width="2" d="M556,-791.07C556,-764.13 556,-711.62 556,-667 556,-667 556,-667 556,-593 556,-418.33 541.34,-337.32 667,-216 690.65,-193.17 725.36,-179.78 753.39,-172.18"/>
<polygon fill="grey" stroke="grey" stroke-width="2" points="753.95,-175.64 762.8,-169.81 752.24,-168.85 753.95,-175.64"/>
</g>
<!-- 7&#45;&gt;6 -->
<g id="edge14" class="edge">
<title>7&#45;&gt;6</title>
<path fill="none" stroke="grey" stroke-width="2" d="M404.75,-863.15C431.25,-854.02 463.77,-842.8 491.85,-833.12"/>
<polygon fill="grey" stroke="grey" stroke-width="2" points="492.82,-836.49 501.13,-829.92 490.53,-829.87 492.82,-836.49"/>
</g>
<!-- 7&#45;&gt;14 -->
<g id="edge35" class="edge">
<title>7&#45;&gt;14</title>
<path fill="none" stroke="grey" stroke-width="2" d="M301.34,-880.3C211.97,-876.05 38,-853.13 38,-739 38,-739 38,-739 38,-233 38,-186.5 53.49,-168.52 93,-144 136.12,-117.24 476.37,-99.18 606.56,-93.18"/>
<polygon fill="grey" stroke="grey" stroke-width="2" points="606.36,-96.7 616.19,-92.75 606.04,-89.7 606.36,-96.7"/>
</g>
<!-- 7&#45;&gt;22 -->
<g id="edge64" class="edge">
<title>7&#45;&gt;22</title>
<path fill="none" stroke="grey" stroke-width="2" d="M301.24,-868.6C241.68,-850.87 152,-812.06 152,-739 152,-739 152,-739 152,-377 152,-206.79 357.1,-317.98 514,-252 546.98,-238.13 552.43,-228.38 586,-216 641.94,-195.38 709.03,-180.23 752.99,-171.53"/>
<polygon fill="grey" stroke="grey" stroke-width="2" points="753.45,-175 762.6,-169.67 752.12,-168.13 753.45,-175"/>
</g>
<!-- 8&#45;&gt;0 -->
<g id="edge4" class="edge">
<title>8&#45;&gt;0</title>
<path fill="none" stroke="grey" stroke-width="2" d="M422.78,-366.56C359.69,-354.75 266.3,-335.65 254,-324 194.63,-267.78 222.43,-186.96 292,-144 476.24,-30.24 1183.71,-19.83 1361.35,-19.03"/>
<polygon fill="grey" stroke="grey" stroke-width="2" points="1361.35,-22.53 1371.34,-18.99 1361.33,-15.53 1361.35,-22.53"/>
</g>
<!-- 8&#45;&gt;14 -->
<g id="edge46" class="edge">
<title>8&#45;&gt;14</title>
<path fill="none" stroke="grey" stroke-width="2" d="M422.57,-363.52C338.06,-341.12 197.01,-291.13 247,-216 287.34,-155.38 505.63,-114.39 606.21,-98.45"/>
<polygon fill="grey" stroke="grey" stroke-width="2" points="606.68,-101.91 616.02,-96.92 605.61,-95 606.68,-101.91"/>
</g>
<!-- 8&#45;&gt;18 -->
<g id="edge57" class="edge">
<title>8&#45;&gt;18</title>
<path fill="none" stroke="grey" stroke-width="2" d="M539.2,-363.42C594.92,-350.42 678.11,-331.01 730.95,-318.68"/>
<polygon fill="grey" stroke="grey" stroke-width="2" points="731.47,-322.15 740.42,-316.47 729.88,-315.33 731.47,-322.15"/>
</g>
<!-- 21 -->
<g id="node22" class="node">
<title>21</title>
<path fill="none" stroke="#56d892" stroke-width="2" d="M493.5,-252C493.5,-252 364.5,-252 364.5,-252 358.5,-252 352.5,-246 352.5,-240 352.5,-240 352.5,-228 352.5,-228 352.5,-222 358.5,-216 364.5,-216 364.5,-216 493.5,-216 493.5,-216 499.5,-216 505.5,-222 505.5,-228 505.5,-228 505.5,-240 505.5,-240 505.5,-246 499.5,-252 493.5,-252"/>
<text text-anchor="middle" x="429" y="-231.5" font-family="sans" font-size="10.00">format_antibody_escape_plot</text>
</g>
<!-- 8&#45;&gt;21 -->
<g id="edge60" class="edge">
<title>8&#45;&gt;21</title>
<path fill="none" stroke="grey" stroke-width="2" d="M474.41,-359.02C465.74,-335.33 450.37,-293.35 439.94,-264.86"/>
<polygon fill="grey" stroke="grey" stroke-width="2" points="443.3,-263.87 436.57,-255.68 436.73,-266.27 443.3,-263.87"/>
</g>
<!-- 8&#45;&gt;22 -->
<g id="edge74" class="edge">
<title>8&#45;&gt;22</title>
<path fill="none" stroke="grey" stroke-width="2" d="M493.14,-359.22C516.57,-326.22 571.27,-255.32 634,-216 670.71,-192.99 718.29,-179.14 753.1,-171.4"/>
<polygon fill="grey" stroke="grey" stroke-width="2" points="753.74,-174.84 762.8,-169.35 752.29,-167.99 753.74,-174.84"/>
</g>
<!-- 9 -->
<g id="node10" class="node">
<title>9</title>
<path fill="none" stroke="#56d87b" stroke-width="2" d="M1151.5,-468C1151.5,-468 1086.5,-468 1086.5,-468 1080.5,-468 1074.5,-462 1074.5,-456 1074.5,-456 1074.5,-444 1074.5,-444 1074.5,-438 1080.5,-432 1086.5,-432 1086.5,-432 1151.5,-432 1151.5,-432 1157.5,-432 1163.5,-438 1163.5,-444 1163.5,-444 1163.5,-456 1163.5,-456 1163.5,-462 1157.5,-468 1151.5,-468"/>
<text text-anchor="middle" x="1119" y="-447.5" font-family="sans" font-size="10.00">avg_muteffects</text>
</g>
<!-- 9&#45;&gt;0 -->
<g id="edge5" class="edge">
<title>9&#45;&gt;0</title>
<path fill="none" stroke="grey" stroke-width="2" d="M1164.47,-446.49C1244.47,-439.36 1402,-411.99 1402,-307 1402,-307 1402,-307 1402,-161 1402,-122.65 1402,-78.48 1402,-49.72"/>
<polygon fill="grey" stroke="grey" stroke-width="2" points="1405.5,-49.96 1402,-39.96 1398.5,-49.96 1405.5,-49.96"/>
</g>
<!-- 9&#45;&gt;8 -->
<g id="edge16" class="edge">
<title>9&#45;&gt;8</title>
<path fill="none" stroke="grey" stroke-width="2" d="M1073.63,-444.02C963.98,-431.99 683.91,-401.26 551.89,-386.78"/>
<polygon fill="grey" stroke="grey" stroke-width="2" points="552.54,-383.33 542.21,-385.72 551.77,-390.29 552.54,-383.33"/>
</g>
<!-- 9&#45;&gt;14 -->
<g id="edge48" class="edge">
<title>9&#45;&gt;14</title>
<path fill="none" stroke="grey" stroke-width="2" d="M1164.32,-446.43C1199.26,-441.79 1245.48,-429.26 1269,-396 1339.67,-296.08 1268.8,-195.97 1158,-144 1078.96,-106.93 818.52,-95.44 707.67,-92.19"/>
<polygon fill="grey" stroke="grey" stroke-width="2" points="708.04,-88.69 697.94,-91.91 707.84,-95.69 708.04,-88.69"/>
</g>
<!-- 9&#45;&gt;18 -->
<g id="edge58" class="edge">
<title>9&#45;&gt;18</title>
<path fill="none" stroke="grey" stroke-width="2" d="M1073.75,-444.08C1027.1,-437.72 953.18,-423.93 895,-396 862.02,-380.17 829.66,-353.53 807.89,-333.52"/>
<polygon fill="grey" stroke="grey" stroke-width="2" points="810.56,-331.22 800.88,-326.92 805.76,-336.32 810.56,-331.22"/>
</g>
<!-- 19 -->
<g id="node20" class="node">
<title>19</title>
<path fill="none" stroke="#bed856" stroke-width="2" d="M1171.5,-252C1171.5,-252 1068.5,-252 1068.5,-252 1062.5,-252 1056.5,-246 1056.5,-240 1056.5,-240 1056.5,-228 1056.5,-228 1056.5,-222 1062.5,-216 1068.5,-216 1068.5,-216 1171.5,-216 1171.5,-216 1177.5,-216 1183.5,-222 1183.5,-228 1183.5,-228 1183.5,-240 1183.5,-240 1183.5,-246 1177.5,-252 1171.5,-252"/>
<text text-anchor="middle" x="1120" y="-231.5" font-family="sans" font-size="10.00">format_muteffects_plot</text>
</g>
<!-- 9&#45;&gt;19 -->
<g id="edge59" class="edge">
<title>9&#45;&gt;19</title>
<path fill="none" stroke="grey" stroke-width="2" d="M1119.08,-431.12C1119.25,-394.62 1119.64,-311.13 1119.86,-265.74"/>
<polygon fill="grey" stroke="grey" stroke-width="2" points="1123.35,-266.02 1119.9,-256 1116.36,-265.99 1123.35,-266.02"/>
</g>
<!-- 9&#45;&gt;22 -->
<g id="edge76" class="edge">
<title>9&#45;&gt;22</title>
<path fill="none" stroke="grey" stroke-width="2" d="M1109.55,-431.34C1082.96,-382.27 1006.8,-245.87 966,-216 921.76,-183.61 897.26,-197.65 846.62,-182.67"/>
<polygon fill="grey" stroke="grey" stroke-width="2" points="847.76,-179.36 837.17,-179.56 845.57,-186.01 847.76,-179.36"/>
</g>
<!-- 10&#45;&gt;9 -->
<g id="edge19" class="edge">
<title>10&#45;&gt;9</title>
<path fill="none" stroke="grey" stroke-width="2" d="M1072.65,-503.34C1079.28,-495.85 1087.16,-486.95 1094.53,-478.63"/>
<polygon fill="grey" stroke="grey" stroke-width="2" points="1097.13,-480.97 1101.14,-471.17 1091.89,-476.33 1097.13,-480.97"/>
</g>
<!-- 10&#45;&gt;14 -->
<g id="edge43" class="edge">
<title>10&#45;&gt;14</title>
<path fill="none" stroke="grey" stroke-width="2" d="M1106.78,-508.37C1161.08,-491.9 1246.33,-457.64 1292,-396 1339.69,-331.64 1328.53,-281.9 1283,-216 1255.44,-176.1 1245.5,-163.28 1201,-144 1113.07,-105.91 825.29,-94.93 707.72,-92"/>
<polygon fill="grey" stroke="grey" stroke-width="2" points="708.02,-88.5 697.94,-91.76 707.85,-95.5 708.02,-88.5"/>
</g>
<!-- 10&#45;&gt;18 -->
<g id="edge55" class="edge">
<title>10&#45;&gt;18</title>
<path fill="none" stroke="grey" stroke-width="2" d="M1012.21,-503.15C964.83,-482.62 889.89,-445.31 838,-396 820,-378.89 805.1,-355 795.05,-336.27"/>
<polygon fill="grey" stroke="grey" stroke-width="2" points="798.24,-334.82 790.55,-327.53 792.02,-338.02 798.24,-334.82"/>
</g>
<!-- 10&#45;&gt;22 -->
<g id="edge71" class="edge">
<title>10&#45;&gt;22</title>
<path fill="none" stroke="grey" stroke-width="2" d="M1056.39,-503.28C1054.77,-472.75 1048.82,-408.8 1027,-360 994.02,-286.23 979.27,-266.26 916,-216 914.44,-214.76 877.89,-198.12 846.23,-183.82"/>
<polygon fill="grey" stroke="grey" stroke-width="2" points="847.73,-180.66 837.17,-179.73 844.85,-187.04 847.73,-180.66"/>
</g>
<!-- 11&#45;&gt;10 -->
<g id="edge20" class="edge">
<title>11&#45;&gt;10</title>
<path fill="none" stroke="grey" stroke-width="2" d="M1168.8,-575.88C1150.05,-567.01 1126.89,-556.06 1106.51,-546.42"/>
<polygon fill="grey" stroke="grey" stroke-width="2" points="1108.17,-543.33 1097.63,-542.22 1105.18,-549.66 1108.17,-543.33"/>
</g>
<!-- 15 -->
<g id="node16" class="node">
<title>15</title>
<path fill="none" stroke="#d86e56" stroke-width="2" d="M1248,-396C1248,-396 1162,-396 1162,-396 1156,-396 1150,-390 1150,-384 1150,-384 1150,-372 1150,-372 1150,-366 1156,-360 1162,-360 1162,-360 1248,-360 1248,-360 1254,-360 1260,-366 1260,-372 1260,-372 1260,-384 1260,-384 1260,-390 1254,-396 1248,-396"/>
<text text-anchor="middle" x="1205" y="-375.5" font-family="sans" font-size="10.00">analyze_func_scores</text>
</g>
<!-- 11&#45;&gt;15 -->
<g id="edge49" class="edge">
<title>11&#45;&gt;15</title>
<path fill="none" stroke="grey" stroke-width="2" d="M1205,-575.12C1205,-538.62 1205,-455.13 1205,-409.74"/>
<polygon fill="grey" stroke="grey" stroke-width="2" points="1208.5,-410 1205,-400 1201.5,-410 1208.5,-410"/>
</g>
<!-- 12&#45;&gt;8 -->
<g id="edge17" class="edge">
<title>12&#45;&gt;8</title>
<path fill="none" stroke="grey" stroke-width="2" d="M584.56,-431.15C567.33,-422.47 546.38,-411.92 527.84,-402.59"/>
<polygon fill="grey" stroke="grey" stroke-width="2" points="529.58,-399.55 519.07,-398.17 526.43,-405.8 529.58,-399.55"/>
</g>
<!-- 12&#45;&gt;14 -->
<g id="edge45" class="edge">
<title>12&#45;&gt;14</title>
<path fill="none" stroke="grey" stroke-width="2" d="M580.81,-440.81C495.68,-422.22 297.96,-374.54 254,-324 221.91,-287.1 216.54,-262.05 233,-216 246.92,-177.04 255.98,-164.35 292,-144 344.71,-114.22 518.69,-99.52 606.03,-93.87"/>
<polygon fill="grey" stroke="grey" stroke-width="2" points="606.24,-97.36 616,-93.24 605.8,-90.37 606.24,-97.36"/>
</g>
<!-- 12&#45;&gt;18 -->
<g id="edge54" class="edge">
<title>12&#45;&gt;18</title>
<path fill="none" stroke="grey" stroke-width="2" d="M640.39,-431.02C668.46,-406.26 719.17,-361.53 751.41,-333.1"/>
<polygon fill="grey" stroke="grey" stroke-width="2" points="753.32,-336.08 758.5,-326.84 748.69,-330.83 753.32,-336.08"/>
</g>
<!-- 12&#45;&gt;22 -->
<g id="edge73" class="edge">
<title>12&#45;&gt;22</title>
<path fill="none" stroke="grey" stroke-width="2" d="M625.89,-431.16C636.8,-399.89 662.43,-334.1 699,-288 714.7,-268.2 726.2,-270.87 743,-252 759.31,-233.67 774.13,-210.21 784.57,-191.98"/>
<polygon fill="grey" stroke="grey" stroke-width="2" points="787.49,-193.94 789.3,-183.5 781.37,-190.53 787.49,-193.94"/>
</g>
<!-- 13&#45;&gt;12 -->
<g id="edge26" class="edge">
<title>13&#45;&gt;12</title>
<path fill="none" stroke="grey" stroke-width="2" d="M714.32,-575.02C695.9,-550.8 662.94,-507.45 641.27,-478.96"/>
<polygon fill="grey" stroke="grey" stroke-width="2" points="644.24,-477.09 635.4,-471.25 638.67,-481.33 644.24,-477.09"/>
</g>
<!-- 16 -->
<g id="node17" class="node">
<title>16</title>
<path fill="none" stroke="#d89c56" stroke-width="2" d="M1006,-396C1006,-396 916,-396 916,-396 910,-396 904,-390 904,-384 904,-384 904,-372 904,-372 904,-366 910,-360 916,-360 916,-360 1006,-360 1006,-360 1012,-360 1018,-366 1018,-372 1018,-372 1018,-384 1018,-384 1018,-390 1012,-396 1006,-396"/>
<text text-anchor="middle" x="961" y="-375.5" font-family="sans" font-size="10.00">analyze_prob_escape</text>
</g>
<!-- 13&#45;&gt;16 -->
<g id="edge50" class="edge">
<title>13&#45;&gt;16</title>
<path fill="none" stroke="grey" stroke-width="2" d="M747.46,-575.12C788.41,-537.52 883.64,-450.05 931.88,-405.74"/>
<polygon fill="grey" stroke="grey" stroke-width="2" points="934.2,-408.37 939.2,-399.02 929.46,-403.21 934.2,-408.37"/>
</g>
<!-- 14&#45;&gt;0 -->
<g id="edge3" class="edge">
<title>14&#45;&gt;0</title>
<path fill="none" stroke="grey" stroke-width="2" d="M694.97,-85.43C821.84,-73.51 1230.41,-35.12 1361.27,-22.83"/>
<polygon fill="grey" stroke="grey" stroke-width="2" points="1361.45,-26.33 1371.08,-21.91 1360.8,-19.36 1361.45,-26.33"/>
</g>
<!-- 15&#45;&gt;14 -->
<g id="edge36" class="edge">
<title>15&#45;&gt;14</title>
<path fill="none" stroke="grey" stroke-width="2" d="M1211.55,-359.24C1221.86,-328.08 1238.25,-262.48 1213,-216 1184.93,-164.33 1157.3,-164 1102,-144 1030.4,-118.11 808.19,-100.83 707.5,-94.13"/>
<polygon fill="grey" stroke="grey" stroke-width="2" points="707.93,-90.65 697.72,-93.49 707.47,-97.63 707.93,-90.65"/>
</g>
<!-- 15&#45;&gt;18 -->
<g id="edge52" class="edge">
<title>15&#45;&gt;18</title>
<path fill="none" stroke="grey" stroke-width="2" d="M1149.13,-367.78C1066.06,-354.06 911.21,-328.5 831.41,-315.32"/>
<polygon fill="grey" stroke="grey" stroke-width="2" points="832.23,-311.91 821.79,-313.73 831.09,-318.82 832.23,-311.91"/>
</g>
<!-- 15&#45;&gt;22 -->
<g id="edge65" class="edge">
<title>15&#45;&gt;22</title>
<path fill="none" stroke="grey" stroke-width="2" d="M1182.08,-359.19C1151.2,-335.12 1094.61,-290.75 1047,-252 1027.67,-236.27 1026.39,-226.96 1004,-216 940.04,-184.68 912.86,-201.36 846.63,-182.51"/>
<polygon fill="grey" stroke="grey" stroke-width="2" points="847.74,-179.19 837.15,-179.6 845.68,-185.88 847.74,-179.19"/>
</g>
<!-- 16&#45;&gt;14 -->
<g id="edge44" class="edge">
<title>16&#45;&gt;14</title>
<path fill="none" stroke="grey" stroke-width="2" d="M1018.84,-362.88C1104.22,-339.29 1248.25,-287.31 1193,-216 1133.42,-139.1 829.53,-105.45 707.66,-94.9"/>
<polygon fill="grey" stroke="grey" stroke-width="2" points="708.02,-91.42 697.76,-94.06 707.43,-98.39 708.02,-91.42"/>
</g>
<!-- 16&#45;&gt;18 -->
<g id="edge56" class="edge">
<title>16&#45;&gt;18</title>
<path fill="none" stroke="grey" stroke-width="2" d="M915.11,-359.15C889.4,-349.15 857.3,-336.67 830.95,-326.42"/>
<polygon fill="grey" stroke="grey" stroke-width="2" points="832.32,-323.2 821.73,-322.84 829.78,-329.73 832.32,-323.2"/>
</g>
<!-- 16&#45;&gt;22 -->
<g id="edge72" class="edge">
<title>16&#45;&gt;22</title>
<path fill="none" stroke="grey" stroke-width="2" d="M956.97,-359.06C949,-327.05 928.58,-259.37 890,-216 883.11,-208.26 864.44,-196.87 845.88,-186.63"/>
<polygon fill="grey" stroke="grey" stroke-width="2" points="847.56,-183.56 837.1,-181.88 844.23,-189.72 847.56,-183.56"/>
</g>
<!-- 17 -->
<g id="node18" class="node">
<title>17</title>
<path fill="none" stroke="#8fd856" stroke-width="2" d="M722,-252C722,-252 688,-252 688,-252 682,-252 676,-246 676,-240 676,-240 676,-228 676,-228 676,-222 682,-216 688,-216 688,-216 722,-216 722,-216 728,-216 734,-222 734,-228 734,-228 734,-240 734,-240 734,-246 728,-252 722,-252"/>
<text text-anchor="middle" x="705" y="-231.5" font-family="sans" font-size="10.00">subindex</text>
</g>
<!-- 17&#45;&gt;14 -->
<g id="edge38" class="edge">
<title>17&#45;&gt;14</title>
<path fill="none" stroke="grey" stroke-width="2" d="M698.92,-215.02C690.91,-191.33 676.72,-149.35 667.09,-120.86"/>
<polygon fill="grey" stroke="grey" stroke-width="2" points="670.52,-120.06 664,-111.71 663.89,-122.3 670.52,-120.06"/>
</g>
<!-- 17&#45;&gt;22 -->
<g id="edge67" class="edge">
<title>17&#45;&gt;22</title>
<path fill="none" stroke="grey" stroke-width="2" d="M728.97,-215.34C740.03,-207.19 753.35,-197.37 765.46,-188.45"/>
<polygon fill="grey" stroke="grey" stroke-width="2" points="767.29,-191.45 773.27,-182.7 763.14,-185.81 767.29,-191.45"/>
</g>
<!-- 18&#45;&gt;14 -->
<g id="edge47" class="edge">
<title>18&#45;&gt;14</title>
<path fill="none" stroke="grey" stroke-width="2" d="M743.16,-297.91C717.17,-290.92 684.35,-277.42 667,-252 640.52,-213.2 644.45,-156.13 650.3,-121.38"/>
<polygon fill="grey" stroke="grey" stroke-width="2" points="653.7,-122.27 652.11,-111.8 646.82,-120.98 653.7,-122.27"/>
</g>
<!-- 18&#45;&gt;17 -->
<g id="edge51" class="edge">
<title>18&#45;&gt;17</title>
<path fill="none" stroke="grey" stroke-width="2" d="M761.82,-287.34C753.34,-279.52 743.18,-270.16 733.81,-261.53"/>
<polygon fill="grey" stroke="grey" stroke-width="2" points="736.39,-259.15 726.66,-254.95 731.65,-264.3 736.39,-259.15"/>
</g>
<!-- 18&#45;&gt;22 -->
<g id="edge75" class="edge">
<title>18&#45;&gt;22</title>
<path fill="none" stroke="grey" stroke-width="2" d="M795.67,-287.09C802.7,-277.35 810.37,-264.71 814,-252 819.52,-232.71 815.99,-210.4 811.09,-192.94"/>
<polygon fill="grey" stroke="grey" stroke-width="2" points="814.48,-192.03 808.13,-183.56 807.8,-194.15 814.48,-192.03"/>
</g>
<!-- 19&#45;&gt;14 -->
<g id="edge33" class="edge">
<title>19&#45;&gt;14</title>
<path fill="none" stroke="grey" stroke-width="2" d="M1065.56,-215.02C1009.63,-196.68 919.96,-167.64 842,-144 796.53,-130.21 744.48,-115.38 707.19,-104.93"/>
<polygon fill="grey" stroke="grey" stroke-width="2" points="708.15,-101.56 697.57,-102.24 706.26,-108.3 708.15,-101.56"/>
</g>
<!-- 19&#45;&gt;22 -->
<g id="edge62" class="edge">
<title>19&#45;&gt;22</title>
<path fill="none" stroke="grey" stroke-width="2" d="M1055.63,-218.92C993.79,-205.39 901.84,-185.28 846.72,-173.22"/>
<polygon fill="grey" stroke="grey" stroke-width="2" points="847.68,-169.85 837.17,-171.13 846.19,-176.69 847.68,-169.85"/>
</g>
<!-- 20 -->
<g id="node21" class="node">
<title>20</title>
<path fill="none" stroke="#a7d856" stroke-width="2" d="M322,-252C322,-252 268,-252 268,-252 262,-252 256,-246 256,-240 256,-240 256,-228 256,-228 256,-222 262,-216 268,-216 268,-216 322,-216 322,-216 328,-216 334,-222 334,-228 334,-228 334,-240 334,-240 334,-246 328,-252 322,-252"/>
<text text-anchor="middle" x="295" y="-231.5" font-family="sans" font-size="10.00">make_graphs</text>
</g>
<!-- 20&#45;&gt;14 -->
<g id="edge39" class="edge">
<title>20&#45;&gt;14</title>
<path fill="none" stroke="grey" stroke-width="2" d="M334.81,-216.13C378.19,-197.87 449.74,-168.14 512,-144 543.57,-131.76 579.28,-118.7 607.37,-108.6"/>
<polygon fill="grey" stroke="grey" stroke-width="2" points="608.21,-112.02 616.45,-105.35 605.85,-105.43 608.21,-112.02"/>
</g>
<!-- 20&#45;&gt;22 -->
<g id="edge68" class="edge">
<title>20&#45;&gt;22</title>
<path fill="none" stroke="grey" stroke-width="2" d="M334.87,-218.12C337.6,-217.34 340.33,-216.62 343,-216 490.19,-181.86 669.4,-169.23 752.93,-164.97"/>
<polygon fill="grey" stroke="grey" stroke-width="2" points="752.89,-168.48 762.7,-164.49 752.54,-161.48 752.89,-168.48"/>
</g>
<!-- 21&#45;&gt;14 -->
<g id="edge34" class="edge">
<title>21&#45;&gt;14</title>
<path fill="none" stroke="grey" stroke-width="2" d="M457.88,-215.02C498.31,-189.84 571.92,-143.99 617.43,-115.64"/>
<polygon fill="grey" stroke="grey" stroke-width="2" points="619.15,-118.7 625.79,-110.44 615.45,-112.75 619.15,-118.7"/>
</g>
<!-- 21&#45;&gt;22 -->
<g id="edge63" class="edge">
<title>21&#45;&gt;22</title>
<path fill="none" stroke="grey" stroke-width="2" d="M506.32,-218.41C580.87,-204.35 691.24,-183.52 753.27,-171.82"/>
<polygon fill="grey" stroke="grey" stroke-width="2" points="753.59,-175.32 762.77,-170.02 752.3,-168.44 753.59,-175.32"/>
</g>
<!-- 22&#45;&gt;14 -->
<g id="edge41" class="edge">
<title>22&#45;&gt;14</title>
<path fill="none" stroke="grey" stroke-width="2" d="M765.75,-144.23C747.67,-135.38 725.18,-124.37 705.35,-114.67"/>
<polygon fill="grey" stroke="grey" stroke-width="2" points="706.96,-111.56 696.44,-110.31 703.89,-117.85 706.96,-111.56"/>
</g>
</g>
</svg>
